# Blender v2.78 (sub 0) OBJ File: 'VFXMeshParticles.blend'
# www.blender.org
mtllib VFXMeshParticle03.mtl
o VFXMeshParticle03_Plane.002
v -0.125000 0.000000 0.500000
v 0.125000 0.000000 0.500000
v -0.125000 0.000000 -0.500000
v 0.125000 0.000000 -0.500000
v 0.000000 0.125000 0.500000
v 0.000000 -0.125000 0.500000
v 0.000000 0.125000 -0.500000
v 0.000000 -0.125000 -0.500000
v 0.500000 0.000000 0.125000
v 0.500000 0.000000 -0.125000
v -0.500000 0.000000 0.125000
v -0.500000 0.000000 -0.125000
v 0.500000 0.125000 -0.000000
v 0.500000 -0.125000 -0.000000
v -0.500000 0.125000 0.000000
v -0.500000 -0.125000 0.000000
v 0.000000 -0.500000 0.125000
v 0.000000 -0.500000 -0.125000
v 0.000000 0.500000 0.125000
v 0.000000 0.500000 -0.125000
v 0.125000 -0.500000 -0.000000
v -0.125000 -0.500000 -0.000000
v 0.125000 0.500000 0.000000
v -0.125000 0.500000 0.000000
vt 0.0000 0.0000
vt 1.0000 0.0000
vt 1.0000 1.0000
vt 0.0000 1.0000
vt 0.0000 0.0000
vt 1.0000 0.0000
vt 1.0000 1.0000
vt 0.0000 1.0000
vt 0.0000 0.0000
vt 1.0000 0.0000
vt 1.0000 1.0000
vt 0.0000 1.0000
vt 0.0000 0.0000
vt 1.0000 0.0000
vt 1.0000 1.0000
vt 0.0000 1.0000
vt 0.0000 0.0000
vt 1.0000 0.0000
vt 1.0000 1.0000
vt 0.0000 1.0000
vt 0.0000 0.0000
vt 1.0000 0.0000
vt 1.0000 1.0000
vt 0.0000 1.0000
vn 0.0000 1.0000 0.0000
vn 1.0000 0.0000 0.0000
vn -0.0000 0.0000 -1.0000
usemtl None
s off
f 1/1/1 2/2/1 4/3/1 3/4/1
f 5/5/2 6/6/2 8/7/2 7/8/2
f 9/9/1 10/10/1 12/11/1 11/12/1
f 13/13/3 14/14/3 16/15/3 15/16/3
f 17/17/2 18/18/2 20/19/2 19/20/2
f 21/21/3 22/22/3 24/23/3 23/24/3
