# Blender v2.78 (sub 0) OBJ File: 'VFXMeshParticles.blend'
# www.blender.org
mtllib VFXMeshParticleFloor02.mtl
o VFXMeshParticleFloor02_Circle
v 0.000000 0.000000 -0.575000
v -0.497965 0.000000 -0.287500
v -0.497965 0.000000 0.287500
v 0.000000 0.000000 0.575000
v 0.497965 0.000000 0.287500
v 0.497965 0.000000 -0.287500
v 0.000000 -4.000000 -0.575000
v -0.497965 -4.000000 -0.287500
v -0.497965 -4.000000 0.287500
v 0.000000 -4.000000 0.575000
v 0.497965 -4.000000 0.287500
v 0.497965 -4.000000 -0.287500
v 0.000000 0.000000 0.000007
v 0.000000 -4.000000 -0.000002
vt 0.1228 0.7344
vt 0.0201 0.7344
vt 0.0201 0.0201
vt 0.1228 0.0201
vt 0.4084 0.7344
vt 0.3057 0.7344
vt 0.3057 0.0201
vt 0.4084 0.0201
vt 0.2656 0.7344
vt 0.1629 0.7344
vt 0.1629 0.0201
vt 0.2656 0.0201
vt 0.8369 0.7344
vt 0.7342 0.7344
vt 0.7342 0.0201
vt 0.8369 0.0201
vt 0.5513 0.7344
vt 0.4486 0.7344
vt 0.4486 0.0201
vt 0.5513 0.0201
vt 0.6941 0.7344
vt 0.5914 0.7344
vt 0.5914 0.0201
vt 0.6941 0.0201
vt 0.4159 0.9286
vt 0.3270 0.9799
vt 0.3270 0.8772
vt 0.1090 0.7746
vt 0.1090 0.8772
vt 0.0201 0.8259
vt 0.4159 0.8259
vt 0.3270 0.7746
vt 0.0201 0.9286
vt 0.1090 0.9799
vt 0.2381 0.8259
vt 0.2381 0.9286
vt 0.1979 0.8259
vt 0.1979 0.9286
vn 0.5000 0.0000 -0.8660
vn 0.5000 0.0000 0.8660
vn -1.0000 0.0000 0.0000
vn 1.0000 0.0000 0.0000
vn -0.5000 0.0000 0.8660
vn -0.5000 0.0000 -0.8660
vn 0.0000 1.0000 0.0000
vn 0.0000 -1.0000 0.0000
usemtl None
s off
f 1/1/1 6/2/1 12/3/1 7/4/1
f 5/5/2 4/6/2 10/7/2 11/8/2
f 3/9/3 2/10/3 8/11/3 9/12/3
f 6/13/4 5/14/4 11/15/4 12/16/4
f 4/17/5 3/18/5 9/19/5 10/20/5
f 2/21/6 1/22/6 7/23/6 8/24/6
f 2/25/7 3/26/7 13/27/7
f 8/28/8 14/29/8 9/30/8
f 1/31/7 13/27/7 6/32/7
f 10/33/8 14/29/8 11/34/8
f 5/35/7 13/27/7 4/36/7
f 13/27/7 1/31/7 2/25/7
f 6/32/7 13/27/7 5/35/7
f 13/27/7 3/26/7 4/36/7
f 14/29/8 8/28/8 7/37/8
f 11/34/8 14/29/8 12/38/8
f 9/30/8 14/29/8 10/33/8
f 12/38/8 14/29/8 7/37/8
