# Blender v2.78 (sub 0) OBJ File: ''
# www.blender.org
mtllib VFXMeshParticle01.mtl
o VFXMeshParticle01_Plane
v -0.500000 -0.125000 0.399356
v 0.500000 -0.125000 0.399356
v -0.500000 -0.125000 -0.100644
v 0.500000 -0.125000 -0.100644
v 0.000000 -0.125000 0.149356
v 0.000000 -0.125000 -0.350644
v -0.500000 0.125000 0.399356
v 0.500000 0.125000 0.399356
v -0.500000 0.125000 -0.100644
v 0.500000 0.125000 -0.100644
v 0.000000 0.125000 0.149356
v 0.000000 0.125000 -0.350644
vt 0.6001 0.2107
vt 0.6001 0.5809
vt 0.2299 0.3958
vt 0.2299 0.0256
vt 0.9703 0.0256
vt 0.9703 0.3958
vt 0.6001 0.2108
vt 0.9703 0.0257
vt 0.9703 0.3959
vt 0.6001 0.5810
vt 0.2299 0.0257
vt 0.2299 0.3959
vt 0.1895 0.0307
vt 0.1895 0.3992
vt 0.0247 0.3992
vt 0.0247 0.0307
vt 0.1895 0.0307
vt 0.1895 0.3992
vt 0.0247 0.3992
vt 0.0247 0.0307
vt 0.0247 0.3992
vt 0.0247 0.0307
vt 0.1895 0.0307
vt 0.1895 0.3992
vt 0.0247 0.3992
vt 0.0247 0.0307
vt 0.1895 0.0307
vt 0.1895 0.3992
vt 0.0247 0.3992
vt 0.0247 0.0307
vt 0.1895 0.0307
vt 0.1895 0.3992
vt 0.1895 0.0307
vt 0.1895 0.3992
vt 0.0247 0.3992
vt 0.0247 0.0307
vn 0.0000 -1.0000 0.0000
vn 0.0000 1.0000 0.0000
vn 0.4472 0.0000 -0.8944
vn -0.4472 0.0000 -0.8944
vn -0.4472 0.0000 0.8944
vn 0.4472 0.0000 0.8944
vn 1.0000 0.0000 0.0000
vn -1.0000 0.0000 0.0000
usemtl None
s off
f 5/1/1 6/2/1 4/3/1 2/4/1
f 1/5/1 3/6/1 6/2/1 5/1/1
f 11/7/2 8/8/2 10/9/2 12/10/2
f 7/11/2 11/7/2 12/10/2 9/12/2
f 4/13/3 6/14/3 12/15/3 10/16/3
f 6/17/4 3/18/4 9/19/4 12/20/4
f 5/21/5 2/22/5 8/23/5 11/24/5
f 1/25/6 5/26/6 11/27/6 7/28/6
f 2/29/7 4/30/7 10/31/7 8/32/7
f 3/33/8 1/34/8 7/35/8 9/36/8
