# Blender v2.78 (sub 0) OBJ File: 'VFXMeshParticles.blend'
# www.blender.org
mtllib VFXMeshParticle08.mtl
o VFXMeshParticle07_Plane.011
v 0.000000 -0.124930 -0.500000
v 0.000000 0.124930 -0.500000
v 0.353553 -0.124930 -0.353553
v 0.353553 0.124930 -0.353553
v 0.500000 -0.124930 0.000000
v 0.500000 0.124930 0.000000
v 0.353553 -0.124930 0.353553
v 0.353553 0.124930 0.353553
v -0.000000 -0.124930 0.500000
v -0.000000 0.124930 0.500000
v -0.353553 -0.124930 0.353553
v -0.353553 0.124930 0.353553
v -0.500000 -0.124930 -0.000000
v -0.500000 0.124930 -0.000000
v -0.353553 -0.124930 -0.353553
v -0.353553 0.124930 -0.353553
v -0.000000 -0.124930 0.000000
v -0.000000 0.124930 0.000000
vt 0.5214 0.3115
vt 0.5214 0.1878
vt 0.7108 0.1878
vt 0.7108 0.3115
vt 0.9429 0.1878
vt 0.9429 0.3115
vt 0.7536 0.3115
vt 0.7536 0.1878
vt 0.7108 0.6878
vt 0.7108 0.8115
vt 0.5214 0.8115
vt 0.5214 0.6878
vt 0.7108 0.3542
vt 0.7108 0.4779
vt 0.5214 0.4779
vt 0.5214 0.3542
vt 0.7108 0.0214
vt 0.7108 0.1450
vt 0.5214 0.1450
vt 0.5214 0.0214
vt 0.7536 0.1450
vt 0.7536 0.0214
vt 0.9429 0.0214
vt 0.9429 0.1450
vt 0.3447 0.0214
vt 0.4786 0.1553
vt 0.2500 0.2500
vt 0.7536 0.4779
vt 0.7536 0.3542
vt 0.9429 0.3542
vt 0.9429 0.4779
vt 0.5214 0.6450
vt 0.5214 0.5214
vt 0.7108 0.5214
vt 0.7108 0.6450
vt 0.0214 0.6553
vt 0.1553 0.5214
vt 0.2500 0.7500
vt 0.4786 0.8447
vt 0.3447 0.9786
vt 0.0214 0.3447
vt 0.0214 0.1553
vt 0.1553 0.0214
vt 0.1553 0.4786
vt 0.4786 0.3447
vt 0.3447 0.4786
vt 0.3447 0.5214
vt 0.4786 0.6553
vt 0.1553 0.9786
vt 0.0214 0.8447
vn 0.0000 -0.6302 -0.7764
vn 0.0000 0.6302 -0.7764
vn 0.5490 0.6302 -0.5490
vn 0.5490 -0.6302 -0.5490
vn 0.7764 0.6302 0.0000
vn 0.7764 -0.6302 0.0000
vn 0.5490 0.6302 0.5490
vn 0.5490 -0.6302 0.5490
vn 0.0000 0.6302 0.7764
vn 0.0000 -0.6302 0.7764
vn -0.5490 0.6302 0.5490
vn -0.5490 -0.6302 0.5490
vn -0.7764 0.6302 0.0000
vn -0.7764 -0.6302 0.0000
vn 0.0000 1.0000 0.0000
vn -0.5490 0.6302 -0.5490
vn -0.5490 -0.6302 -0.5490
vn 0.0000 -1.0000 0.0000
usemtl None
s 1
f 1/1/1 2/2/2 4/3/3 3/4/4
f 3/5/4 4/6/3 6/7/5 5/8/6
f 5/9/6 6/10/5 8/11/7 7/12/8
f 7/13/8 8/14/7 10/15/9 9/16/10
f 9/17/10 10/18/9 12/19/11 11/20/12
f 11/21/12 12/22/11 14/23/13 13/24/14
f 8/25/7 6/26/5 18/27/15
f 13/28/14 14/29/13 16/30/16 15/31/17
f 15/32/17 16/33/16 2/34/2 1/35/1
f 13/36/14 15/37/17 17/38/18
f 5/39/6 7/40/8 17/38/18
f 14/41/13 12/42/11 18/27/15
f 10/43/9 8/25/7 18/27/15
f 16/44/16 14/41/13 18/27/15
f 6/26/5 4/45/3 18/27/15
f 12/42/11 10/43/9 18/27/15
f 2/46/2 16/44/16 18/27/15
f 4/45/3 2/46/2 18/27/15
f 1/47/1 3/48/4 17/38/18
f 15/37/17 1/47/1 17/38/18
f 9/49/10 11/50/12 17/38/18
f 3/48/4 5/39/6 17/38/18
f 11/50/12 13/36/14 17/38/18
f 7/40/8 9/49/10 17/38/18
